<?xml version="1.0" standalone="no"?>
<!DOCTYPE svg PUBLIC "-//W3C//DTD SVG 20010904//EN"
 "http://www.w3.org/TR/2001/REC-SVG-20010904/DTD/svg10.dtd">
<svg version="1.0" xmlns="http://www.w3.org/2000/svg"
 width="512.000000pt" height="512.000000pt" viewBox="0 0 512.000000 512.000000"
 preserveAspectRatio="xMidYMid meet">
<metadata>
Created by potrace 1.16, written by Peter Selinger 2001-2019
</metadata>
<g transform="translate(0.000000,512.000000) scale(0.100000,-0.100000)"
fill="#000000" stroke="none">
<path d="M360 5101 c-91 -29 -142 -61 -211 -130 -70 -70 -106 -130 -133 -220
-14 -50 -16 -255 -16 -2191 0 -2343 -4 -2173 58 -2295 32 -64 143 -175 207
-207 122 -62 -48 -58 2295 -58 2343 0 2173 -4 2295 58 64 32 175 143 207 207
62 122 58 -48 58 2295 0 2343 4 2173 -58 2295 -32 64 -143 175 -207 207 -122
62 49 58 -2299 57 -2024 0 -2144 -1 -2196 -18z m2100 -2109 l1125 -1201 3
1007 c2 693 0 1019 -8 1044 -14 50 -56 97 -105 119 -30 14 -65 19 -137 19
l-98 0 0 95 0 95 523 -2 522 -3 0 -90 0 -90 -105 -5 c-71 -4 -115 -11 -137
-23 -47 -25 -91 -84 -103 -139 -13 -63 -13 -2191 0 -2479 5 -114 17 -255 25
-315 20 -140 19 -144 -6 -144 -19 0 -20 -4 -13 -56 4 -36 3 -55 -3 -53 -6 2
-536 564 -1178 1249 -642 685 -1183 1261 -1202 1280 l-34 35 3 -1025 c3 -1103
1 -1055 56 -1114 47 -50 96 -66 205 -66 l98 0 -3 -92 -3 -93 -522 -3 -523 -2
0 95 0 95 98 0 c142 1 214 41 242 138 8 26 10 423 8 1342 -4 1334 -5 1384 -43
1593 -4 24 -1 27 21 27 25 0 25 1 19 63 l-6 62 78 -81 c43 -45 584 -622 1203
-1282z"/>
</g>
</svg>
